<svg height="60" viewBox="0 0 220 60" width="220" xmlns="http://www.w3.org/2000/svg"><g fill="#282828" fill-rule="evenodd" transform="translate(0 .310761)"><g fill-rule="nonzero" transform="translate(0 6.689239)"><path d="m15.5981558 15.322574c-3.1388127 0-5.82922293 1.4215515-7.53314956 3.3474413h-.08966809v-2.6595594h-7.84703449v35.4459216h7.93671293v-14.1691662c1.88328869 1.8799898 4.43917601 2.9346784 7.53314961 2.9346784 6.7260281 0 11.4342394-5.59435 11.4342394-12.4725517 0-6.8782578-4.7082165-12.426764-11.4342498-12.426764zm3.0042951 12.426764c0 3.2556975-2.3765356 5.548394-5.3808255 5.548394-2.9594507 0-5.33597604-2.2926965-5.33597604-5.548394 0-3.2098536 2.24200244-5.5026062 5.33597604-5.5026062 3.2284963 0 5.3808255 2.2927526 5.3808255 5.5026062z"/><path d="m30.3867892 27.7951818c0 6.8782579 4.7082217 12.4267079 11.4342498 12.4267079 3.1388179 0 5.829223-1.4215515 7.5331496-3.3473851h.0897198v2.6595594h7.8470035v-23.5236081h-7.936713v2.2469088c-1.8832835-1.880102-4.439176-2.9347907-7.5331496-2.9347907-6.726028 0-11.4342601 5.59435-11.4342601 12.4726078zm8.4299547 0c0-3.2556974 2.3765357-5.54845 5.3808256-5.54845 2.9594507 0 5.3359811 2.2927526 5.3359811 5.54845 0 3.2098537-2.2420076 5.5025502-5.3359811 5.5025502-3.2284912 0-5.3808256-2.2926965-5.3808256-5.5025502z"/><path d="m63.9634651 39.534064h7.9367129v-12.3808641c0-.596082.5829202-4.7688805 4.7082217-4.7688805 2.6455865 0 4.1252705 1.2839078 4.1252705 1.2839078l3.3181955-6.8782579s-2.0626663-1.4673953-5.0220756-1.4673953c-4.5288804 0-7.0399337 4.0811109-7.0399337 4.0811109h-.0896681v-3.393229h-7.9367232z"/><path d="m99.5397084 21.9716127c2.3765406 0 3.8562456 1.1005324 3.8562456 1.1005324l2.690405-5.54845s-2.600737-2.2011211-7.7124911-2.2011211c-6.6812199 0-12.7346131 5.59435-12.7346131 12.5185078 0 6.8782017 6.0983049 12.3808079 12.7346131 12.3808079 5.1117541 0 7.7124911-2.1093772 7.7124911-2.1093772l-2.690405-5.6400817s-1.479705 1.1004764-3.8562456 1.1004764c-3.004321 0-5.4705247-2.5678717-5.4705247-5.8235692 0-3.2098536 2.4662037-5.7777253 5.4705247-5.7777253z"/><path d="m133.817705 28.8956582c.046567-.2749507.046567-.7795134.046567-1.1004764 0-8.2539093-5.336002-12.4726078-12.331096-12.4726078-6.950183 0-12.644909 5.59435-12.644909 12.4726078 0 6.8323579 5.694726 12.4267079 12.644909 12.4267079 5.111805 0 9.326775-1.6966706 11.927512-6.1445882l-5.739534-2.9346784c-1.928149 2.1092651-3.049129 2.6137155-5.605058 2.6137155-2.017817 0-4.977226-1.2380639-4.977226-4.8606804zm-16.456346-4.4937614c.134528-2.155165 1.65904-3.8059357 4.394305-3.8059357 2.331733 0 3.990826 1.3298077 4.349498 3.8059357z"/><path d="m138.784945 39.534064h7.936687v-39.43534484h-7.936687z"/><path d="m153.362038 39.534064h7.936635v-39.43534484h-7.936635z"/><path d="m166.279935 27.7951818c0 7.2450646 5.560198 12.4267079 13.855609 12.4267079 7.936687 0 13.721081-5.1816433 13.721081-12.4267079 0-7.3368083-6.098258-12.4726078-13.721081-12.4726078-7.757351 0-13.855609 5.1357995-13.855609 12.4726078zm8.429939 0c0-3.2556974 2.376541-5.54845 5.38081-5.54845 2.959461 0 5.336002 2.2927526 5.336002 5.54845 0 3.2098537-2.241961 5.5025502-5.336002 5.5025502-3.228465 0-5.38081-2.2926965-5.38081-5.5025502z"/></g><g transform="matrix(.97029573 .2419219 -.2419219 .97029573 187.685837 .468705)"><path d="m6.70004374 19.7219813c-3.45766378-1.1359272-5.18649568-3.4336453-5.18649568-6.8931541 0-3.45950884 1.7288319-7.34161345 5.18649568-11.64631385 2.88945575 3.60090053 4.44496416 6.69081186 4.66652506 9.26973395.221561 2.5789222-.8334252 5.3149811-3.1649586 8.2081767-.84504787-1.7262444-1.34557002-2.9979767-1.50156646-3.8151971-.79868412-4.184076-.57409209-6.6256367-.77023167-6.48697257-.1792989.12675834-1.13892873 2.75263797-.80802769 6.48697257.09142091 1.0317172.61750736 2.657302 1.57825936 4.8767544z" transform="matrix(.9961947 -.08715574 .08715574 .9961947 -.886412 .602319)"/><path d="m9.52339541 22.1313442c.32173009-5.6568 2.96820379-8.8340488 7.93942109-9.5317463 4.9712174-.6976976 10.0409542.9489258 15.2092104 4.9398701-3.6116103 4.6399742-6.8743004 7.4557284-9.7880703 8.4472627s-6.5811348.6237263-11.0020948-1.1034238c-1.7289011 3.2355146-2.84940001 5.0317433-3.3614966 5.388686-.76814489.5354142-2.53453556.1031135-2.0637365-1.2725885.20541617-.6002379 2.25696483-5.8723523 7.3940773-8.929908 1.8080991-1.0761618 5.3034366-1.9195046 10.4860124-2.5300284-3.5069285-.71166-6.3567979-.7941255-8.5496082-.2473965s-4.2807152 2.1598199-6.26371479 4.8392727z"/></g></g></svg>